<svg width="24" height="23" viewBox="0 0 24 23" fill="none" xmlns="http://www.w3.org/2000/svg">
<path fill-rule="evenodd" clip-rule="evenodd" d="M10 16.5515C5.58172 16.5515 2 13.258 2 9.19526C2 5.13254 5.58172 1.83905 10 1.83905C14.4183 1.83905 18 5.13254 18 9.19526C18 10.8952 17.3729 12.4605 16.3199 13.7061L21.7071 18.6598L20.2929 19.9602L14.9056 15.0065C13.551 15.9748 11.8487 16.5515 10 16.5515ZM16 9.19526C16 12.2423 13.3137 14.7124 10 14.7124C6.68629 14.7124 4 12.2423 4 9.19526C4 6.14822 6.68629 3.6781 10 3.6781C13.3137 3.6781 16 6.14822 16 9.19526Z" fill="black" fill-opacity="0.5"/>
</svg>
